<?xml version="1.0" encoding="UTF-8"?>
<svg width="323px" height="77px" viewBox="0 0 323 77" version="1.1" xmlns="http://www.w3.org/2000/svg" xmlns:xlink="http://www.w3.org/1999/xlink">
    <title>Group 17</title>
    <defs>
        <path d="M5.7241,13.412 C5.5353,14.4408 5.3869,15.4863 5.2791,16.5465 C4.3525,25.651 6.5702,35.7383 11.94,45.1216 C16.5307,52.8992 22.7129,58.968 29.5001,62.9762 C13.0435,61.9334 0,48.2379 0,31.52 C0,24.7824 2.1186,18.5357 5.7241,13.412 Z M11.9125,6.8469 C17.2954,2.5619 24.1109,0 31.52,0 C48.9164,0 63.04,14.1236 63.04,31.52 C63.04,41.9682 57.9454,51.236 50.1078,56.9716 C49.0905,57.0639 48.0591,57.0874 47.0195,57.0463 C44.059,56.9291 41.0287,56.3667 38.0425,55.2761 C31.0128,52.7089 24.2007,47.697 19.0763,40.4998 C13.6597,33.1098 10.8491,24.8186 10.6249,17.0608 C10.5214,13.4824 10.95,10.0329 11.9125,6.8469 Z" id="path-1"></path>
    </defs>
    <g id="Page-1" stroke="none" stroke-width="1" fill="none" fill-rule="evenodd">
        <g id="Android" transform="translate(-379.000000, -922.000000)">
            <g id="Group-17" transform="translate(379.000000, 922.000000)">
                <path d="M5.7241,24.9193664 C5.5353,25.9481664 5.3869,26.9936664 5.2791,28.0538664 C4.3525,37.1583664 6.5702,47.2456664 11.94,56.6289664 C16.5307,64.4065664 22.7129,70.4753664 29.5001,74.4835664 C13.0435,73.4407664 0,59.7452664 0,43.0273664 C0,36.2897664 2.1186,30.0430664 5.7241,24.9193664 Z M11.9125,18.3542664 C17.2954,14.0692664 24.1109,11.5073664 31.52,11.5073664 C48.9164,11.5073664 63.04,25.6309664 63.04,43.0273664 C63.04,53.4755664 57.9454,62.7433664 50.1078,68.4789664 C49.0905,68.5712664 48.0591,68.5947664 47.0195,68.5536664 C44.059,68.4364664 41.0287,67.8740664 38.0425,66.7834664 C31.0128,64.2162664 24.2007,59.2043664 19.0763,52.0071664 C13.6597,44.6171664 10.8491,36.3259664 10.6249,28.5681664 C10.5214,24.9897664 10.95,21.5402664 11.9125,18.3542664 Z" id="Fill-1" fill="#FFFFFF"></path>
                <g id="Group-4" transform="translate(0.000000, 11.507366)">
                    <mask id="mask-2" fill="white">
                        <use xlink:href="#path-1"></use>
                    </mask>
                    <g id="Clip-3"></g>
                    <path d="M34.5382,6.668 C51.9346,6.668 66.0582,20.7917 66.0582,38.188 C66.0582,55.5844 51.9346,69.7081 34.5382,69.7081 C17.1418,69.7081 3.0182,55.5844 3.0182,38.188 C3.0182,20.7917 17.1418,6.668 34.5382,6.668 Z" id="Fill-2" fill="#FFFFFF" mask="url(#mask-2)"></path>
                </g>
                <path d="M61.07,8.13016643 C64.0212,8.13016643 66.4172,10.5261664 66.4172,13.4773664 C66.4172,16.4285664 64.0212,18.8245664 61.07,18.8245664 C58.1188,18.8245664 55.7228,16.4285664 55.7228,13.4773664 C55.7228,10.5261664 58.1188,8.13016643 61.07,8.13016643 Z" id="Fill-5" fill="#FFFFFF"></path>
                <path d="M66.848,18.8072664 C67.4072,19.5762664 67.9515,20.3685664 68.4782,21.1817664 C80.7844,40.1829664 78.7329,63.2843664 64.1078,72.7563664 C49.4828,82.2283664 27.5628,74.6522664 15.2566,55.6511664 C3.0229,36.7620664 4.9782,13.8210664 19.3697,4.24616643 C19.4798,4.39866643 19.6246,4.51556643 19.6269,4.51746643 L19.5179,4.14846643 L19.6269,4.51736643 C19.6269,4.51296643 19.626,4.30196643 19.6,4.09436643 L19.6269,4.07656643 C30.0122,-2.64943357 44.0758,-0.779233567 55.7658,7.67576643 C55.431,7.98206643 55.1228,8.31696643 54.8448,8.67666643 C52.2244,6.70476643 49.4715,5.08126643 46.6601,3.83166643 C37.4838,-0.247133567 27.7,-0.361433567 19.8666,4.44666643 L19.811,4.47716643 C19.7435,4.50246643 19.7517,4.49946643 19.6902,4.51286643 L19.627,4.51746643 L19.6269,4.51746643 C19.712,4.51746643 19.7952,4.49286643 19.8666,4.44666643 C12.2812,9.63236643 8.3937,18.6067664 8.3676,28.6457664 C8.3456,37.1194664 11.0909,46.3465664 16.7526,54.6821664 C22.2973,62.9428664 29.7463,68.8397664 37.5052,71.9695664 C46.2928,75.5144664 55.524,75.4567664 62.7686,70.6885664 C70.0892,66.0316664 73.9286,57.6315664 74.2925,48.1591664 C74.6139,39.7943664 72.2772,30.5795664 67.0054,22.1356664 C66.5399,21.3815664 66.0589,20.6452664 65.564,19.9279664 C66.0317,19.6013664 66.4624,19.2251664 66.848,18.8072664 Z M57.8088,9.24076643 C60.4779,11.4032664 62.9958,13.9197664 65.2858,16.7653664 C64.9462,17.1999664 64.541,17.5807664 64.0851,17.8928664 C61.8741,15.0031664 59.4229,12.4442664 56.8119,10.2442664 C57.0985,9.86736643 57.434,9.52976643 57.8088,9.24076643 Z" id="Fill-6" fill="#FFFFFF"></path>
                <path d="M88.5016,22.4490664 L88.5016,54.4484664 C88.5016,55.0711664 89.0062,55.5023664 89.662,55.5023664 L105.403,55.5023664 C105.857,55.5023664 106.059,55.3107664 106.059,54.4484664 C106.059,53.5382664 105.857,53.2987664 105.403,53.2987664 L90.8224,53.2987664 L90.8224,39.5505664 L102.981,39.5505664 C103.435,39.5505664 103.587,39.3110664 103.587,38.4487664 C103.587,37.5386664 103.435,37.3470664 102.981,37.3470664 L90.8224,37.3470664 L90.8224,23.5987664 L105.302,23.5987664 C105.756,23.5987664 105.958,23.3592664 105.958,22.4490664 C105.958,21.5868664 105.756,21.3952664 105.302,21.3952664 L89.662,21.3952664 C89.0062,21.3952664 88.5016,21.8263664 88.5016,22.4490664 Z" id="Fill-7" fill="#FFFFFF"></path>
                <path d="M128.106,27.4310664 L128.106,27.6226664 C128.106,28.0058664 128.359,28.1974664 129.317,28.1974664 C130.225,28.1974664 130.427,28.1016664 130.427,27.6226664 L130.427,26.8561664 C130.427,23.9340664 127.4,21.3952664 124.121,21.3952664 L118.874,21.3952664 C115.746,21.3952664 112.517,24.3652664 112.517,27.3352664 L112.517,49.4665664 C112.517,52.5323664 115.645,55.5023664 118.874,55.5023664 L124.121,55.5023664 C127.35,55.5023664 130.427,52.5323664 130.427,49.4665664 L130.427,38.9278664 C130.427,38.3050664 129.923,37.8260664 129.317,37.8260664 L121.346,37.8260664 C120.942,37.8260664 120.74,38.1134664 120.74,38.9278664 C120.74,39.7421664 120.942,40.0295664 121.346,40.0295664 L128.106,40.0295664 L128.106,48.9874664 C128.106,51.0473664 125.786,53.3466664 123.717,53.3466664 L119.277,53.3466664 C117.209,53.3466664 114.838,51.0473664 114.838,48.9874664 L114.838,27.9100664 C114.838,25.8502664 117.209,23.5987664 119.277,23.5987664 L123.717,23.5987664 C125.786,23.5987664 128.106,25.3232664 128.106,27.4310664 Z" id="Fill-8" fill="#FFFFFF"></path>
                <path d="M152.525,21.9700664 L152.525,48.7479664 L138.853,21.5868664 C138.802,21.4431664 138.701,21.3952664 138.046,21.3952664 C137.137,21.3952664 136.885,21.5389664 136.885,21.9700664 L136.885,54.9274664 C136.885,55.3586664 137.137,55.5023664 138.046,55.5023664 C139.004,55.5023664 139.206,55.3586664 139.206,54.9274664 L139.206,28.1495664 L152.878,55.3107664 C152.929,55.4544664 153.03,55.5023664 153.686,55.5023664 C154.594,55.5023664 154.846,55.3586664 154.846,54.9274664 L154.846,21.9700664 C154.846,21.5389664 154.594,21.3952664 153.686,21.3952664 C152.727,21.3952664 152.525,21.5389664 152.525,21.9700664 Z" id="Fill-9" fill="#FFFFFF"></path>
                <path d="M161.304,33.4668664 C161.304,36.5326664 164.432,39.5505664 167.661,39.5505664 L172.504,39.5505664 C174.573,39.5505664 176.944,41.8499664 176.944,43.9097664 L176.944,48.9874664 C176.944,51.0473664 174.573,53.3466664 172.504,53.3466664 L168.064,53.3466664 C166.097,53.3466664 163.625,51.5742664 163.625,49.4665664 L163.625,49.1791664 C163.625,48.7958664 163.473,48.7000664 162.464,48.7000664 C161.455,48.7000664 161.304,48.7958664 161.304,49.1791664 L161.304,49.9455664 C161.304,53.0113664 164.381,55.5023664 167.661,55.5023664 L172.908,55.5023664 C176.137,55.5023664 179.265,52.5323664 179.265,49.4665664 L179.265,43.4307664 C179.265,40.3649664 176.137,37.3470664 172.908,37.3470664 L168.064,37.3470664 C165.996,37.3470664 163.625,35.0476664 163.625,32.9878664 L163.625,27.9100664 C163.625,25.8502664 165.996,23.5987664 168.064,23.5987664 L172.504,23.5987664 C174.573,23.5987664 176.944,25.3232664 176.944,27.4310664 L176.944,27.6226664 C176.944,28.0537664 177.146,28.1974664 178.104,28.1974664 C179.013,28.1974664 179.265,28.0537664 179.265,27.6226664 L179.265,26.8561664 C179.265,23.9340664 176.187,21.3952664 172.908,21.3952664 L167.661,21.3952664 C164.533,21.3952664 161.304,24.3652664 161.304,27.3352664 L161.304,33.4668664 Z" id="Fill-10" fill="#FFFFFF"></path>
                <path d="M185.723,33.4668664 C185.723,36.5326664 188.851,39.5505664 192.08,39.5505664 L196.923,39.5505664 C198.992,39.5505664 201.363,41.8499664 201.363,43.9097664 L201.363,48.9874664 C201.363,51.0473664 198.992,53.3466664 196.923,53.3466664 L192.483,53.3466664 C190.516,53.3466664 188.043,51.5742664 188.043,49.4665664 L188.043,49.1791664 C188.043,48.7958664 187.892,48.7000664 186.883,48.7000664 C185.874,48.7000664 185.723,48.7958664 185.723,49.1791664 L185.723,49.9455664 C185.723,53.0113664 188.8,55.5023664 192.08,55.5023664 L197.327,55.5023664 C200.556,55.5023664 203.684,52.5323664 203.684,49.4665664 L203.684,43.4307664 C203.684,40.3649664 200.556,37.3470664 197.327,37.3470664 L192.483,37.3470664 C190.415,37.3470664 188.043,35.0476664 188.043,32.9878664 L188.043,27.9100664 C188.043,25.8502664 190.415,23.5987664 192.483,23.5987664 L196.923,23.5987664 C198.992,23.5987664 201.363,25.3232664 201.363,27.4310664 L201.363,27.6226664 C201.363,28.0537664 201.565,28.1974664 202.523,28.1974664 C203.431,28.1974664 203.684,28.0537664 203.684,27.6226664 L203.684,26.8561664 C203.684,23.9340664 200.606,21.3952664 197.327,21.3952664 L192.08,21.3952664 C188.952,21.3952664 185.723,24.3652664 185.723,27.3352664 L185.723,33.4668664 Z" id="Fill-11" fill="#FFFFFF"></path>
                <path d="M235.466,28.4594664 L221.435,45.9992664 L232.998,45.9992664 L235.607,28.4594664 L235.466,28.4594664 Z M241.882,45.9992664 L246.324,45.9992664 C247.264,45.9992664 247.664,46.4455664 247.523,47.3381664 L247.029,50.6184664 C246.982,51.5110664 246.465,51.9573664 245.478,51.9573664 L241.036,51.9573664 L239.485,62.1331664 C239.344,63.0257664 238.827,63.4720664 237.934,63.4720664 L231.87,63.4720664 C230.883,63.4720664 230.46,63.0257664 230.601,62.1331664 L232.152,51.9573664 L211.776,51.9573664 C210.883,51.9573664 210.459,51.5110664 210.506,50.6184664 L210.647,49.9490664 C210.742,49.4580664 210.859,49.0229664 211,48.6435664 C211.141,48.2642664 211.4,47.8960664 211.776,47.5389664 L238.004,16.3422664 C238.71,15.6281664 239.509,15.2711664 240.402,15.2711664 L245.055,15.2711664 C245.995,15.2711664 246.395,15.7174664 246.254,16.6100664 L241.882,45.9992664 Z" id="Fill-12" fill="#FFFFFF"></path>
                <path d="M235.466,28.4594664 L221.435,45.9992664 L232.998,45.9992664 L235.607,28.4594664 L235.466,28.4594664 Z M241.882,45.9992664 L246.324,45.9992664 C247.264,45.9992664 247.664,46.4455664 247.523,47.3381664 L247.029,50.6184664 C246.982,51.5110664 246.465,51.9573664 245.478,51.9573664 L241.036,51.9573664 L239.485,62.1331664 C239.344,63.0257664 238.827,63.4720664 237.934,63.4720664 L231.87,63.4720664 C230.883,63.4720664 230.46,63.0257664 230.601,62.1331664 L232.152,51.9573664 L211.776,51.9573664 C210.883,51.9573664 210.459,51.5110664 210.506,50.6184664 L210.647,49.9490664 C210.742,49.4580664 210.859,49.0229664 211,48.6435664 C211.141,48.2642664 211.4,47.8960664 211.776,47.5389664 L238.004,16.3422664 C238.71,15.6281664 239.509,15.2711664 240.402,15.2711664 L245.055,15.2711664 C245.995,15.2711664 246.395,15.7174664 246.254,16.6100664 L241.882,45.9992664 Z" id="Stroke-13" stroke="#FFFFFF" stroke-width="0.24" stroke-linejoin="round"></path>
                <path d="M264.602,26.1376664 L268.588,40.5086664 L260.617,40.5086664 L264.602,26.1376664 Z M264.602,21.3473664 C264.148,21.3473664 263.846,21.5389664 263.745,21.7784664 L253.856,54.5442664 C253.856,54.9274664 254.512,55.5023664 255.319,55.5023664 C255.723,55.5023664 256.026,55.3586664 256.126,54.9753664 L260.011,42.7121664 L269.194,42.7121664 L273.129,54.9753664 C273.23,55.2628664 273.532,55.5023664 273.986,55.5023664 C274.693,55.5023664 275.298,55.0711664 275.298,54.6400664 L275.298,54.5442664 L265.46,21.7784664 C265.41,21.6347664 265.107,21.3473664 264.602,21.3473664 Z" id="Fill-14" fill="#FFFFFF"></path>
                <path d="M281.756,54.4484664 C281.756,55.0711664 282.261,55.5023664 282.916,55.5023664 L298.153,55.5023664 C298.607,55.5023664 298.809,55.3107664 298.809,54.4484664 C298.809,53.5382664 298.607,53.2987664 298.153,53.2987664 L284.077,53.2987664 L284.077,21.9700664 C284.077,21.5389664 283.875,21.3952664 282.916,21.3952664 C282.008,21.3952664 281.756,21.5389664 281.756,21.9700664 L281.756,54.4484664 Z" id="Fill-15" fill="#FFFFFF"></path>
                <path d="M305.267,54.4484664 C305.267,55.0711664 305.771,55.5023664 306.427,55.5023664 L321.664,55.5023664 C322.118,55.5023664 322.319,55.3107664 322.319,54.4484664 C322.319,53.5382664 322.118,53.2987664 321.664,53.2987664 L307.587,53.2987664 L307.587,21.9700664 C307.587,21.5389664 307.386,21.3952664 306.427,21.3952664 C305.519,21.3952664 305.267,21.5389664 305.267,21.9700664 L305.267,54.4484664 Z" id="Fill-16" fill="#FFFFFF"></path>
            </g>
        </g>
    </g>
</svg>