<?xml version="1.0" encoding="UTF-8"?>
<svg width="172px" height="188px" viewBox="0 0 172 188" version="1.1" xmlns="http://www.w3.org/2000/svg" xmlns:xlink="http://www.w3.org/1999/xlink">
    <title>Group 17</title>
    <defs>
        <path d="M9.1034,21.33 C8.8032,22.966 8.5672,24.629 8.3956,26.315 C6.922,40.794 10.449,56.837 18.9889,71.7595 C26.2897,84.1286 36.1216,93.7802 46.9156,100.1545 C20.7438,98.4961 3.55271368e-15,76.7155 3.55271368e-15,50.128 C3.55271368e-15,39.413 3.3693,29.479 9.1034,21.33 Z M18.9451,10.889 C27.5058,4.075 38.3448,0 50.1279,0 C77.7942,0 100.2562,22.462 100.2562,50.128 C100.2562,66.745 92.1532,81.4835 79.6892,90.6051 C78.0712,90.7519 76.4312,90.7893 74.7776,90.7239 C70.0693,90.5375 65.25,89.6431 60.501,87.9088 C49.3213,83.8259 38.4877,75.8553 30.338,64.409 C21.7237,52.657 17.254,39.471 16.8973,27.133 C16.7328,21.442 17.4144,15.956 18.9451,10.889 Z" id="path-1"></path>
    </defs>
    <g id="Page-1" stroke="none" stroke-width="1" fill="none" fill-rule="evenodd">
        <g id="Android" transform="translate(-454.000000, -383.000000)">
            <g id="Group-17" transform="translate(454.000000, 383.000000)">
                <path d="M33.9372,39.6304701 C33.637,41.2664701 33.401,42.9294701 33.2294,44.6154701 C31.7558,59.0944701 35.2828,75.1374701 43.8227,90.0599701 C51.1235,102.42907 60.9554,112.08067 71.7494,118.45497 C45.5776,116.79657 24.8338,95.0159701 24.8338,68.4284701 C24.8338,57.7134701 28.2031,47.7794701 33.9372,39.6304701 Z M43.7789,29.1894701 C52.3396,22.3754701 63.1786,18.3004701 74.9617,18.3004701 C102.628,18.3004701 125.09,40.7624701 125.09,68.4284701 C125.09,85.0454701 116.987,99.7839701 104.523,108.90557 C102.905,109.05237 101.265,109.08977 99.6114,109.02437 C94.9031,108.83797 90.0838,107.94357 85.3348,106.20927 C74.1551,102.12637 63.3215,94.1557701 55.1718,82.7094701 C46.5575,70.9574701 42.0878,57.7714701 41.7311,45.4334701 C41.5666,39.7424701 42.2482,34.2564701 43.7789,29.1894701 Z" id="Fill-1" fill="#5F95FF"></path>
                <g id="Group-4" transform="translate(24.833800, 18.300470)">
                    <mask id="mask-2" fill="white">
                        <use xlink:href="#path-1"></use>
                    </mask>
                    <g id="Clip-3"></g>
                    <path d="M54.9279,10.605 C82.5942,10.605 105.0562,33.066 105.0562,60.733 C105.0562,88.399 82.5942,110.8606 54.9279,110.8606 C27.2616,110.8606 4.8,88.399 4.8,60.733 C4.8,33.066 27.2616,10.605 54.9279,10.605 Z" id="Fill-2" fill="#5C50DA" mask="url(#mask-2)"></path>
                </g>
                <path d="M121.957,12.9294701 C126.65,12.9294701 130.461,16.7404701 130.461,21.4334701 C130.461,26.1274701 126.65,29.9374701 121.957,29.9374701 C117.263,29.9374701 113.453,26.1274701 113.453,21.4334701 C113.453,16.7404701 117.263,12.9294701 121.957,12.9294701 Z" id="Fill-5" fill="#5C50DA"></path>
                <path d="M131.146,29.9104701 C132.035,31.1334701 132.901,32.3934701 133.738,33.6864701 C153.309,63.9054701 150.047,100.64437 126.788,115.70817 C103.529,130.77197 68.6683,118.72337 49.0971,88.5048701 C29.6414,58.4644701 32.7509,21.9804701 55.6385,6.75247008 C55.8136,6.99547008 56.0439,7.18147008 56.0475,7.18447008 L55.8741,6.59747008 L56.0475,7.18447008 C56.0475,7.17747008 56.046,6.84147008 56.0047,6.51147008 L56.0476,6.48347008 C72.5637,-4.21352992 94.9299,-1.23952992 113.521,12.2074701 C112.989,12.6944701 112.498,13.2264701 112.056,13.7994701 C107.889,10.6624701 103.511,8.08147008 99.0397,6.09347008 C84.4462,-0.392529919 68.8865,-0.574529919 56.4287,7.07147008 L56.3403,7.12047008 C56.233,7.16047008 56.246,7.15547008 56.1482,7.17747008 L56.0476,7.18447008 L56.0475,7.18447008 C56.1828,7.18447008 56.3152,7.14547008 56.4287,7.07147008 C44.3653,15.3184701 38.1827,29.5914701 38.1413,45.5564701 C38.1062,59.0334701 42.4723,73.7074701 51.4764,86.9634701 C60.2944,100.10127 72.1409,109.47937 84.4803,114.45697 C98.4557,120.09447 113.137,120.00267 124.658,112.41967 C136.3,105.01347 142.406,91.6543701 142.985,76.5904701 C143.496,63.2864701 139.78,48.6324701 131.396,35.2034701 C130.656,34.0044701 129.891,32.8334701 129.104,31.6924701 C129.847,31.1734701 130.532,30.5744701 131.146,29.9104701 Z M116.77,14.6964701 C121.015,18.1354701 125.019,22.1374701 128.661,26.6624701 C128.121,27.3544701 127.477,27.9594701 126.752,28.4554701 C123.235,23.8604701 119.337,19.7904701 115.185,16.2914701 C115.641,15.6924701 116.174,15.1554701 116.77,14.6964701 Z" id="Fill-6" fill="#5C50DA"></path>
                <path d="M0,157.47837 L0,181.01757 C0,181.47567 0.3711,181.79277 0.8536,181.79277 L12.4329,181.79277 C12.767,181.79277 12.9154,181.65187 12.9154,181.01757 C12.9154,180.34807 12.767,180.17187 12.4329,180.17187 L1.7072,180.17187 L1.7072,170.05847 L10.6515,170.05847 C10.9855,170.05847 11.0969,169.88227 11.0969,169.24797 C11.0969,168.57847 10.9855,168.43747 10.6515,168.43747 L1.7072,168.43747 L1.7072,158.32407 L12.3587,158.32407 C12.6927,158.32407 12.8412,158.14787 12.8412,157.47837 C12.8412,156.84407 12.6927,156.70307 12.3587,156.70307 L0.8536,156.70307 C0.3711,156.70307 0,157.02027 0,157.47837 Z" id="Fill-7" fill="#5C50DA"></path>
                <path d="M29.1339,161.14317 L29.1339,161.28407 C29.1339,161.56597 29.3195,161.70697 30.0246,161.70697 C30.6927,161.70697 30.8411,161.63647 30.8411,161.28407 L30.8411,160.72027 C30.8411,158.57077 28.6143,156.70307 26.202,156.70307 L22.3422,156.70307 C20.0412,156.70307 17.6659,158.88787 17.6659,161.07267 L17.6659,177.35277 C17.6659,179.60807 19.9669,181.79277 22.3422,181.79277 L26.202,181.79277 C28.5772,181.79277 30.8411,179.60807 30.8411,177.35277 L30.8411,169.60037 C30.8411,169.14227 30.47,168.78987 30.0246,168.78987 L24.1607,168.78987 C23.8638,168.78987 23.7154,169.00127 23.7154,169.60037 C23.7154,170.19937 23.8638,170.41087 24.1607,170.41087 L29.1339,170.41087 L29.1339,177.00037 C29.1339,178.51567 27.4267,180.20707 25.9051,180.20707 L22.6391,180.20707 C21.1174,180.20707 19.3731,178.51567 19.3731,177.00037 L19.3731,161.49557 C19.3731,159.98027 21.1174,158.32407 22.6391,158.32407 L25.9051,158.32407 C27.4267,158.32407 29.1339,159.59267 29.1339,161.14317 Z" id="Fill-8" fill="#5C50DA"></path>
                <path d="M47.0967,157.12597 L47.0967,176.82417 L37.039,156.84407 C37.0019,156.73837 36.9277,156.70307 36.4452,156.70307 C35.7772,156.70307 35.5916,156.80887 35.5916,157.12597 L35.5916,181.36997 C35.5916,181.68707 35.7772,181.79277 36.4452,181.79277 C37.1504,181.79277 37.2988,181.68707 37.2988,181.36997 L37.2988,161.67167 L47.3565,181.65187 C47.3936,181.75757 47.4679,181.79277 47.9503,181.79277 C48.6184,181.79277 48.8039,181.68707 48.8039,181.36997 L48.8039,157.12597 C48.8039,156.80887 48.6184,156.70307 47.9503,156.70307 C47.2452,156.70307 47.0967,156.80887 47.0967,157.12597 Z" id="Fill-9" fill="#5C50DA"></path>
                <path d="M53.5544,165.58317 C53.5544,167.83847 55.8555,170.05847 58.2307,170.05847 L61.7936,170.05847 C63.3152,170.05847 65.0595,171.74987 65.0595,173.26517 L65.0595,177.00037 C65.0595,178.51567 63.3152,180.20707 61.7936,180.20707 L58.5276,180.20707 C57.0802,180.20707 55.2616,178.90327 55.2616,177.35277 L55.2616,177.14137 C55.2616,176.85947 55.1503,176.78897 54.408,176.78897 C53.6658,176.78897 53.5544,176.85947 53.5544,177.14137 L53.5544,177.70517 C53.5544,179.96047 55.8183,181.79277 58.2307,181.79277 L62.0905,181.79277 C64.4657,181.79277 66.7668,179.60807 66.7668,177.35277 L66.7668,172.91277 C66.7668,170.65747 64.4657,168.43747 62.0905,168.43747 L58.5276,168.43747 C57.006,168.43747 55.2616,166.74607 55.2616,165.23077 L55.2616,161.49557 C55.2616,159.98027 57.006,158.32407 58.5276,158.32407 L61.7936,158.32407 C63.3152,158.32407 65.0595,159.59267 65.0595,161.14317 L65.0595,161.28407 C65.0595,161.60127 65.208,161.70697 65.9132,161.70697 C66.5812,161.70697 66.7668,161.60127 66.7668,161.28407 L66.7668,160.72027 C66.7668,158.57077 64.5028,156.70307 62.0905,156.70307 L58.2307,156.70307 C55.9297,156.70307 53.5544,158.88787 53.5544,161.07267 L53.5544,165.58317 Z" id="Fill-10" fill="#5C50DA"></path>
                <path d="M71.5173,165.58317 C71.5173,167.83847 73.8183,170.05847 76.1935,170.05847 L79.7564,170.05847 C81.278,170.05847 83.0224,171.74987 83.0224,173.26517 L83.0224,177.00037 C83.0224,178.51567 81.278,180.20707 79.7564,180.20707 L76.4904,180.20707 C75.043,180.20707 73.2245,178.90327 73.2245,177.35277 L73.2245,177.14137 C73.2245,176.85947 73.1131,176.78897 72.3709,176.78897 C71.6286,176.78897 71.5173,176.85947 71.5173,177.14137 L71.5173,177.70517 C71.5173,179.96047 73.7812,181.79277 76.1935,181.79277 L80.0533,181.79277 C82.4286,181.79277 84.7296,179.60807 84.7296,177.35277 L84.7296,172.91277 C84.7296,170.65747 82.4286,168.43747 80.0533,168.43747 L76.4904,168.43747 C74.9688,168.43747 73.2245,166.74607 73.2245,165.23077 L73.2245,161.49557 C73.2245,159.98027 74.9688,158.32407 76.4904,158.32407 L79.7564,158.32407 C81.278,158.32407 83.0224,159.59267 83.0224,161.14317 L83.0224,161.28407 C83.0224,161.60127 83.1708,161.70697 83.876,161.70697 C84.544,161.70697 84.7296,161.60127 84.7296,161.28407 L84.7296,160.72027 C84.7296,158.57077 82.4657,156.70307 80.0533,156.70307 L76.1935,156.70307 C73.8925,156.70307 71.5173,158.88787 71.5173,161.07267 L71.5173,165.58317 Z" id="Fill-11" fill="#5C50DA"></path>
                <path d="M108.109,161.89967 L97.7879,174.80217 L106.294,174.80217 L108.213,161.89967 L108.109,161.89967 Z M112.829,174.80217 L116.097,174.80217 C116.788,174.80217 117.082,175.13047 116.979,175.78707 L116.615,178.20017 C116.581,178.85677 116.201,179.18507 115.474,179.18507 L112.207,179.18507 L111.066,186.67057 C110.962,187.32717 110.582,187.65547 109.925,187.65547 L105.464,187.65547 C104.738,187.65547 104.427,187.32717 104.531,186.67057 L105.672,179.18507 L90.6822,179.18507 C90.0253,179.18507 89.7141,178.85677 89.7486,178.20017 L89.8524,177.70777 C89.9215,177.34657 90.008,177.02647 90.1117,176.74737 C90.2154,176.46837 90.4056,176.19747 90.6822,175.93487 L109.977,152.98607 C110.495,152.46077 111.083,152.19817 111.74,152.19817 L115.163,152.19817 C115.855,152.19817 116.149,152.52647 116.045,153.18307 L112.829,174.80217 Z" id="Fill-12" fill="#5F95FF"></path>
                <path d="M108.109,161.89967 L97.7879,174.80217 L106.294,174.80217 L108.213,161.89967 L108.109,161.89967 Z M112.829,174.80217 L116.097,174.80217 C116.788,174.80217 117.082,175.13047 116.979,175.78707 L116.615,178.20017 C116.581,178.85677 116.201,179.18507 115.474,179.18507 L112.207,179.18507 L111.066,186.67057 C110.962,187.32717 110.582,187.65547 109.925,187.65547 L105.464,187.65547 C104.738,187.65547 104.427,187.32717 104.531,186.67057 L105.672,179.18507 L90.6822,179.18507 C90.0253,179.18507 89.7141,178.85677 89.7486,178.20017 L89.8524,177.70777 C89.9215,177.34657 90.008,177.02647 90.1117,176.74737 C90.2154,176.46837 90.4056,176.19747 90.6822,175.93487 L109.977,152.98607 C110.495,152.46077 111.083,152.19817 111.74,152.19817 L115.163,152.19817 C115.855,152.19817 116.149,152.52647 116.045,153.18307 L112.829,174.80217 Z" id="Stroke-13" stroke="#7598FF" stroke-width="0.24" stroke-linejoin="round"></path>
                <path d="M129.542,160.19167 L132.474,170.76317 L126.61,170.76317 L129.542,160.19167 Z M129.542,156.66787 C129.208,156.66787 128.986,156.80887 128.912,156.98497 L121.637,181.08807 C121.637,181.36997 122.12,181.79277 122.714,181.79277 C123.01,181.79277 123.233,181.68707 123.307,181.40517 L126.165,172.38417 L132.92,172.38417 L135.815,181.40517 C135.889,181.61667 136.111,181.79277 136.445,181.79277 C136.965,181.79277 137.41,181.47567 137.41,181.15857 L137.41,181.08807 L130.173,156.98497 C130.136,156.87927 129.914,156.66787 129.542,156.66787 Z" id="Fill-14" fill="#5C50DA"></path>
                <path d="M142.161,181.01757 C142.161,181.47567 142.532,181.79277 143.015,181.79277 L154.223,181.79277 C154.557,181.79277 154.705,181.65187 154.705,181.01757 C154.705,180.34807 154.557,180.17187 154.223,180.17187 L143.868,180.17187 L143.868,157.12597 C143.868,156.80887 143.72,156.70307 143.015,156.70307 C142.347,156.70307 142.161,156.80887 142.161,157.12597 L142.161,181.01757 Z" id="Fill-15" fill="#5C50DA"></path>
                <path d="M159.456,181.01757 C159.456,181.47567 159.827,181.79277 160.309,181.79277 L171.518,181.79277 C171.852,181.79277 172,181.65187 172,181.01757 C172,180.34807 171.852,180.17187 171.518,180.17187 L161.163,180.17187 L161.163,157.12597 C161.163,156.80887 161.014,156.70307 160.309,156.70307 C159.641,156.70307 159.456,156.80887 159.456,157.12597 L159.456,181.01757 Z" id="Fill-16" fill="#5C50DA"></path>
            </g>
        </g>
    </g>
</svg>